# xmcd
#
# Track frame offsets: 
#        150
#        29252
#        51889
#        67090
#        93917
#        111565
#        133307
#        155366
#        182945
#        200946
#        224276
#        247321
#        274947
#        296898
#        312789
#        339173
#
# Disc length: 4778 seconds
#
# Revision: 0
# Processed by: cddbd v1.5.1PL2 Copyright (c) Steve Scherf et al.
# Submitted via: ExactAudioCopy v0.95b2
#
DISCID=0b12a810
DTITLE=Various Artist - Golden Mystic Hits (Disk I)
DYEAR=2005
DGENRE=
TTITLE0=Wise Hand - Manschoud
TTITLE1=Enigma - Principles of lust
TTITLE2=Linqua Mystica - World of fantasy
TTITLE3=Mark Waterman - Sanctuary (album version)
TTITLE4=Gregorian - Vojage vojage
TTITLE5=Roland Sante - Mood at nightfall
TTITLE6=Silent Dream Orchestra - Fingers from the light of heaven
TTITLE7=John Adorney - Moving on
TTITLE8=Joe Weineck - Blue lagoon
TTITLE9=Marc Glenroy - Promises
TTITLE10=Magna Canta - Ritmo
TTITLE11=Enigma - Mea cultra Part II
TTITLE12=Ed Starink and Peter Weekers - Echoes of the green forest
TTITLE13=Gregorian - Fade to grey
TTITLE14=Gabin - La maison
TTITLE15=Slavik Kemmler - Can you heal me
EXTD=
EXTT0=
EXTT1=
EXTT2=
EXTT3=
EXTT4=
EXTT5=
EXTT6=
EXTT7=
EXTT8=
EXTT9=
EXTT10=
EXTT11=
EXTT12=
EXTT13=
EXTT14=
EXTT15=
PLAYORDER=
